<?xml version="1.0" standalone="no"?><!DOCTYPE svg PUBLIC "-//W3C//DTD SVG 1.1//EN" "http://www.w3.org/Graphics/SVG/1.1/DTD/svg11.dtd"><svg t="1545614759419" class="icon" style="" viewBox="0 0 1024 1024" version="1.1" xmlns="http://www.w3.org/2000/svg" p-id="2378" xmlns:xlink="http://www.w3.org/1999/xlink" width="200" height="200"><defs><style type="text/css"></style></defs><path d="M51.2 643.2c-3.2 11.2 3.2 22.4 16 25.6l88 24-78.4 46.4c-9.6 6.4-14.4 19.2-8 28.8l3.2 4.8c6.4 9.6 19.2 14.4 28.8 8l78.4-46.4-24 88c-3.2 11.2 3.2 22.4 16 25.6l6.4 1.6c11.2 3.2 22.4-3.2 25.6-16l17.6-64 12.8 43.2c3.2 9.6 14.4 16 25.6 12.8l6.4-1.6c11.2-3.2 17.6-14.4 16-24l-22.4-78.4 35.2-35.2L320 704l14.4-56 6.4-6.4 17.6-41.6 88 51.2-67.2 28.8-100.8 104 132.8-56 59.2-60.8 4.8 3.2-52.8 67.2-32 115.2-14.4 3.2c-9.6 3.2-16 14.4-12.8 25.6l1.6 6.4c3.2 11.2 12.8 19.2 24 16l48-12.8-48 48c-8 8-8 22.4 0 30.4l4.8 4.8c8 8 22.4 8 30.4 0l65.6-65.6v91.2c0 11.2 9.6 20.8 20.8 20.8h6.4c11.2 0 20.8-9.6 20.8-20.8V912l64 65.6c8 8 22.4 8 30.4 0l4.8-4.8c8-8 8-22.4 0-30.4L590.4 896l43.2 11.2c9.6 3.2 20.8-4.8 24-16l1.6-6.4c3.2-11.2-3.2-22.4-12.8-25.6l-14.4-3.2-32-115.2-52.8-68.8 4.8-3.2 59.2 60.8 132.8 56-100.8-104-67.2-28.8 88-51.2 17.6 41.6 9.6 9.6 14.4 51.2 22.4-16 38.4 36.8-19.2 75.2c-3.2 9.6 4.8 20.8 16 24l6.4 1.6c11.2 3.2 22.4-3.2 25.6-12.8l12.8-48 17.6 65.6c3.2 11.2 14.4 17.6 25.6 14.4l6.4-1.6c11.2-3.2 17.6-14.4 14.4-25.6L848 729.6l78.4 44.8c9.6 6.4 24 1.6 28.8-8l3.2-4.8c6.4-9.6 1.6-24-8-28.8L872 688l88-24c11.2-3.2 17.6-14.4 14.4-25.6l-1.6-6.4c-3.2-11.2-14.4-17.6-25.6-14.4l-64 17.6 32-32c8-8 6.4-20.8-1.6-28.8l-4.8-4.8c-8-8-20.8-8-28.8-1.6L840 608l-73.6-57.6-97.6-27.2v-3.2l134.4 27.2 176-35.2-176-35.2-134.4 27.2v-3.2l97.6-27.2 75.2-59.2 38.4 40c8 8 20.8 6.4 28.8-1.6l3.2-4.8c8-8 9.6-20.8 1.6-28.8L880 384l65.6 17.6c11.2 3.2 22.4-3.2 25.6-14.4l1.6-6.4c3.2-11.2-3.2-22.4-16-25.6l-88-24 78.4-46.4c9.6-6.4 14.4-19.2 8-28.8l-3.2-4.8c-6.4-9.6-19.2-14.4-28.8-8L844.8 288l24-88c3.2-11.2-3.2-22.4-14.4-25.6l-6.4-1.6c-11.2-3.2-22.4 3.2-25.6 16l-17.6 64-14.4-44.8c-3.2-9.6-14.4-16-25.6-12.8l-6.4 1.6c-11.2 3.2-17.6 14.4-16 24l22.4 76.8-36.8 35.2-24-16-14.4 56-6.4 6.4-17.6 41.6-88-51.2 67.2-28.8 100.8-104-132.8 56-59.2 60.8-6.4-1.6 54.4-68.8 32-115.2 14.4-3.2c9.6-3.2 16-14.4 12.8-25.6l-1.6-6.4c-3.2-11.2-12.8-19.2-24-16l-48 12.8 48-48c8-8 8-22.4 0-30.4l-4.8-3.2c-8-8-22.4-8-30.4 0l-64 64V20.8c0-11.2-9.6-20.8-20.8-20.8h-6.4c-11.2 0-20.8 9.6-20.8 20.8V112l-65.6-64c-8-8-22.4-8-30.4 0l-4.8 4.8c-8 8-8 22.4 0 30.4l46.4 46.4-43.2-11.2c-9.6-3.2-20.8 4.8-24 16l-1.6 6.4c-3.2 11.2 3.2 22.4 12.8 25.6l14.4 3.2 32 115.2 54.4 68.8-4.8 3.2-59.2-60.8-132.8-56 100.8 104 67.2 28.8-88 51.2-17.6-41.6-9.6-9.6-14.4-51.2-22.4 16-38.4-36.8 20.8-73.6c3.2-9.6-4.8-20.8-16-24l-8-4.8c-11.2-3.2-22.4 3.2-25.6 12.8l-12.8 48-17.6-65.6c-3.2-11.2-14.4-17.6-25.6-14.4l-6.4 1.6c-11.2 3.2-17.6 14.4-14.4 25.6l24 88L96 249.6c-9.6-6.4-24-1.6-28.8 8l-3.2 6.4c-6.4 9.6-1.6 24 8 28.8l78.4 44.8-88 24c-11.2 3.2-17.6 14.4-14.4 25.6l1.6 6.4c3.2 11.2 14.4 17.6 25.6 14.4l64-17.6-32 32c-8 8-6.4 20.8 1.6 28.8l4.8 4.8c8 8 20.8 8 28.8 1.6l40-41.6 73.6 57.6 97.6 27.2v3.2l-134.4-27.2L44.8 512l176 35.2 134.4-27.2v3.2l-97.6 27.2-75.2 59.2L144 569.6c-8-8-20.8-6.4-28.8 1.6L112 576c-8 8-9.6 20.8-1.6 28.8L144 640l-65.6-17.6c-11.2-3.2-22.4 3.2-25.6 16l-1.6 4.8zM356.8 544v8l-48 46.4-16-4.8 64-49.6z m0-64l-60.8-48 14.4-4.8 46.4 44.8v8z m-88-128l-17.6 11.2-3.2 49.6-48-12.8 36.8-38.4c1.6-1.6 3.2-3.2 3.2-4.8 1.6-1.6 1.6-3.2 3.2-4.8l11.2-38.4 14.4 38.4z m182.4 148.8l-36.8-64 27.2 8 36.8 51.2-27.2 4.8z m57.6-104l1.6 1.6-14.4 78.4-33.6-24 22.4 6.4 24-62.4z m-11.2 150.4l6.4 38.4-46.4 43.2 4.8-56 35.2-25.6z m68.8 80l-46.4-43.2 6.4-38.4 35.2 24 4.8 57.6zM512 395.2l-1.6-3.2 1.6 3.2z m1.6-3.2v3.2-3.2z m-3.2 3.2l1.6 1.6-1.6-1.6z m-14.4-54.4l-12.8-49.6 9.6 9.6 8 38.4-4.8 1.6z m-14.4-148.8l-6.4 28.8 1.6 8-19.2 9.6-51.2-65.6 75.2 19.2z m83.2 46.4l-19.2-9.6 1.6-8-4.8-28.8 75.2-19.2-52.8 65.6zM528 340.8l-3.2-1.6 8-38.4 9.6-9.6-14.4 49.6z m-14.4 54.4l-1.6 1.6 1.6-1.6z m1.6 1.6l24 62.4 22.4-6.4-33.6 24-14.4-78.4 1.6-1.6z m94.4 40l-36.8 64-25.6-4.8 36.8-51.2 25.6-8zM825.6 400l-51.2 14.4-3.2-52.8-16-9.6 14.4-35.2 9.6 33.6c0 1.6 1.6 3.2 3.2 4.8 1.6 1.6 1.6 3.2 3.2 4.8l40 40z m-158.4 80v-8l48-46.4 16 4.8-64 49.6z m46.4 116.8l-46.4-44.8V544l60.8 48-14.4 4.8z m41.6 75.2l17.6-11.2 3.2-49.6 48 12.8-36.8 38.4c-1.6 1.6-3.2 3.2-3.2 4.8-1.6 1.6-1.6 3.2-3.2 4.8l-9.6 38.4-16-38.4z m-120-129.6l-67.2 9.6-19.2-27.2 49.6-9.6 36.8 27.2zM528 683.2l12.8 49.6-9.6-9.6-8-38.4 4.8-1.6z m14.4 148.8l6.4-28.8-1.6-8 19.2-9.6 51.2 65.6-75.2-19.2z m-83.2-46.4l19.2 9.6-1.6 8 6.4 28.8-75.2 19.2 51.2-65.6z m36.8-102.4l3.2 1.6-8 38.4-9.6 9.6 14.4-49.6z m-107.2-140.8l36.8-25.6 49.6 9.6-19.2 27.2-67.2-11.2zM198.4 624l51.2-14.4 3.2 52.8 16 9.6-14.4 35.2-9.6-33.6c0-1.6-1.6-3.2-3.2-4.8 0-1.6-1.6-3.2-3.2-4.8L198.4 624z" p-id="2379" fill="#ffffff"></path></svg>